<svg width="120" height="100" viewBox="0 0 120 100" fill="none" xmlns="http://www.w3.org/2000/svg">
<path d="M109.373 70.626C96.4017 95.7737 67.9829 106.925 45.8975 95.5339C23.812 84.1425 16.4232 54.5217 29.3941 29.374C42.365 4.22626 70.7839 -6.92538 92.8693 4.46606C114.955 15.8575 122.344 45.4783 109.373 70.626Z" fill="#FFFAFA"/>
<path d="M62.0171 16.2636L12.2974 23.2512C8.53201 23.7804 5.89928 27.2743 6.42847 31.0397L11.7391 68.8266C12.2683 72.592 15.762 75.2247 19.5274 74.6955L48.761 70.587L47.6616 62.7639C46.7676 56.4026 51.2155 50.5 57.5767 49.606C63.9379 48.712 69.8405 53.16 70.7345 59.5212L71.7623 66.8339C74.1047 65.4629 75.5166 62.7695 75.1161 59.9196L69.8055 22.1326C69.2763 18.3673 65.7824 15.7344 62.0171 16.2636ZM24.3723 29.8011L52.2154 25.888C53.2407 25.7439 54.189 26.4584 54.3331 27.4838C54.4772 28.5092 53.7626 29.4574 52.7373 29.6015L24.8942 33.5146C23.8689 33.6587 22.9206 32.9442 22.7765 31.9188C22.6324 30.8934 23.347 29.9452 24.3723 29.8011ZM41.265 61.5002L21.1131 64.3324C20.0878 64.4765 19.1395 63.762 18.9954 62.7366C18.8512 61.7112 19.5659 60.763 20.5912 60.6189L40.7432 57.7867C41.7687 57.6426 42.7168 58.3571 42.8609 59.3825C43.005 60.4079 42.2906 61.3561 41.265 61.5002ZM62.9282 44.3939L19.1751 50.543C18.1498 50.6871 17.2015 49.9726 17.0574 48.9472C16.9133 47.9217 17.6279 46.9736 18.6532 46.8295L62.4065 40.6803C63.432 40.5362 64.3801 41.2507 64.5242 42.2761C64.6682 43.3016 63.9539 44.2497 62.9282 44.3939ZM61.8102 36.4387L18.057 42.5878C17.0318 42.7319 16.0835 42.0174 15.9394 40.992C15.7952 39.9666 16.5099 39.0184 17.5352 38.8743L61.2884 32.7252C62.314 32.581 63.262 33.2955 63.4061 34.321C63.5501 35.3464 62.8359 36.2945 61.8102 36.4387Z" fill="#F9E5E5"/>
<path d="M58.0984 53.3224C53.7848 53.9287 50.7686 57.9314 51.3749 62.245C51.9811 66.5586 55.9838 69.5747 60.2973 68.9685C64.611 68.3622 67.627 64.3597 67.0208 60.0461C66.4146 55.7325 62.4121 52.7162 58.0984 53.3224Z" fill="#F9E5E5"/>
<path d="M52.5645 70.7129L53.8895 80.1412C53.9858 80.826 54.451 81.4022 55.1002 81.6404C55.3953 81.7489 55.7067 81.7793 56.007 81.737C56.3673 81.6864 56.7118 81.5312 56.9932 81.2803L61.4671 77.2957L66.866 79.8928C67.2059 80.0564 67.5796 80.1106 67.9399 80.06C68.2402 80.0178 68.5312 79.9027 68.7849 79.7173C69.3434 79.3094 69.6317 78.6272 69.5355 77.9423L68.2104 68.514C66.42 70.7049 63.8345 72.2554 60.8183 72.6793C57.8021 73.1032 54.8894 72.3254 52.5645 70.7129Z" fill="#F9E5E5"/>
<path d="M84.2012 54.3594L84.0174 56.1075C83.9667 56.59 84.3172 57.0228 84.7996 57.0735L105.778 59.2783C106.26 59.3291 106.693 58.9786 106.743 58.4961L106.927 56.748L84.2012 54.3594Z" fill="#FBEAEA"/>
<path d="M101.793 39.1215C103.287 37.8362 104.061 35.9574 103.915 33.9661C103.706 31.0843 101.411 28.6544 98.4231 28.3403C95.4006 28.0227 92.6746 29.9614 91.8812 32.7012C91.3249 34.6188 91.6911 36.6174 92.8849 38.1851C93.693 39.2469 93.8999 40.5182 93.9312 41.3976C93.9966 43.2468 93.2995 44.5657 92.4997 45.5103L100.648 46.3667C100.062 45.2764 99.6544 43.8402 100.102 42.0462C100.316 41.1926 100.782 39.992 101.793 39.1215Z" fill="#FBEAEA"/>
<path d="M107.984 55.0914L83.5103 52.519C83.0276 52.4683 82.6773 52.0358 82.7281 51.5531L82.82 50.679C83.0732 48.2692 85.2399 46.5147 87.6497 46.7679L105.131 48.6053C107.541 48.8586 109.296 51.0252 109.042 53.4351L108.95 54.3091C108.9 54.7919 108.467 55.1421 107.984 55.0914Z" fill="#FBEAEA"/>
</svg>
