<svg width="120" height="100" viewBox="0 0 120 100" fill="none" xmlns="http://www.w3.org/2000/svg">
<path d="M109.373 70.626C96.4017 95.7737 67.9829 106.925 45.8975 95.5339C23.812 84.1425 16.4232 54.5217 29.3941 29.374C42.365 4.22626 70.7839 -6.92538 92.8693 4.46606C114.955 15.8575 122.344 45.4783 109.373 70.626Z" fill="#FFFAFA"/>
<path d="M74.8289 26.663C73.2821 25.4965 71.1143 25.7142 69.8234 27.107C69.6368 27.3084 69.7788 27.1341 67.02 30.795L76.523 37.9561L79.1019 34.5782C80.3462 32.9269 80.0152 30.5713 78.3639 29.3268L74.8289 26.663Z" fill="#F9E5E5"/>
<path d="M52.3448 50.4395L48.9196 61.631C48.689 62.3851 48.9545 63.2026 49.5841 63.6771C50.2137 64.1517 51.0731 64.1813 51.734 63.7518L61.5479 57.3744C61.9362 57.1221 60.8437 58.4762 74.2352 40.9355L64.7509 33.7886C51.5006 51.3725 52.483 49.988 52.3448 50.4395Z" fill="#F9E5E5"/>
<path d="M65.0041 59.2173C64.6125 59.7302 64.1396 60.1683 63.5987 60.5199L53.7848 66.8973C51.855 68.1514 49.2803 68.139 47.3353 66.673C45.4534 65.255 44.6522 62.7883 45.3417 60.5349L48.767 49.343C48.9593 48.7146 49.2576 48.1297 49.6532 47.6045L63.2236 29.5959L61.0126 13.8635C60.5809 10.7923 57.7311 8.6448 54.6599 9.07643L18.3941 14.1733C15.3229 14.6049 13.1754 17.4547 13.607 20.5259L20.9478 72.7586C21.3795 75.8299 24.2293 77.9773 27.3005 77.5457L63.5663 72.4489C66.6376 72.0172 68.785 69.1674 68.3534 66.0962L67.0162 56.5816L65.0041 59.2173ZM24.4136 25.5705L52.1391 21.674C53.1644 21.5299 54.1125 22.2443 54.2566 23.2696C54.4007 24.295 53.6863 25.2431 52.6609 25.3872L24.9355 29.2837C23.9101 29.4278 22.9621 28.7134 22.8179 27.6881C22.6738 26.6627 23.3883 25.7146 24.4136 25.5705ZM25.8053 35.4725L47.5895 32.4109C48.6149 32.2668 49.563 32.9812 49.7071 34.0066C49.8512 35.0319 49.1367 35.98 48.1114 36.1241L26.3271 39.1857C25.3018 39.3298 24.3537 38.6153 24.2096 37.59C24.0655 36.5647 24.7799 35.6166 25.8053 35.4725ZM25.6012 47.4919C25.4571 46.4666 26.1715 45.5185 27.1969 45.3744L43.04 43.1478C44.0653 43.0037 45.0134 43.7181 45.1575 44.7435C45.3016 45.7688 44.5872 46.7169 43.5619 46.861L27.7187 49.0876C26.6934 49.2317 25.7453 48.5173 25.6012 47.4919Z" fill="#F9E5E5"/>
<path d="M94.0442 64.8275C99.9128 65.3409 105.087 60.9997 105.6 55.131C106.113 49.2623 101.772 44.0886 95.9035 43.5752C90.0348 43.0617 84.8611 47.403 84.3477 53.2717C83.8342 59.1403 88.1755 64.314 94.0442 64.8275Z" fill="#FBEAEA"/>
<path d="M107.639 77.8076L107.646 77.7279C107.658 77.6668 107.664 77.6044 107.662 77.542C107.737 75.1553 106.895 72.8305 105.308 71.0461C103.721 69.2616 101.511 68.1531 99.1321 67.9487L97.8038 67.8324C97.5433 67.8117 97.2824 67.868 97.0535 67.9943L93.6099 69.8747L90.545 67.4249C90.3416 67.2608 90.0944 67.16 89.8342 67.1352L88.506 67.019C86.1055 66.8069 83.716 67.5315 81.8377 69.0411C79.9593 70.5507 78.7376 72.7283 78.4283 75.1182C78.4283 75.1182 78.4179 75.2378 78.4132 75.2909C78.4004 75.361 78.3942 75.4321 78.3946 75.5034C78.383 75.5602 78.3779 75.6181 78.3795 75.6761L78.1622 78.1599C78.0697 79.2168 78.4009 80.2671 79.0828 81.0797C79.7647 81.8924 80.7415 82.4009 81.7984 82.4934L103.051 84.3527C104.108 84.4452 105.158 84.114 105.97 83.4321C106.783 82.7502 107.292 81.7734 107.384 80.7165L107.601 78.2327C107.613 78.1759 107.618 78.1179 107.617 78.06C107.617 78.06 107.637 77.8209 107.639 77.8076Z" fill="#FBEAEA"/>
</svg>
