<svg width="120" height="100" viewBox="0 0 120 100" fill="none" xmlns="http://www.w3.org/2000/svg">
<path d="M109.373 70.626C96.4017 95.7737 67.9829 106.925 45.8975 95.5339C23.812 84.1425 16.4232 54.5217 29.3941 29.374C42.365 4.22626 70.7839 -6.92538 92.8693 4.46606C114.955 15.8575 122.344 45.4783 109.373 70.626Z" fill="#FFFAFA"/>
<path d="M71.0412 21.891L56.5999 23.9206L56.1939 21.0322C55.7462 17.8464 52.7914 15.6197 49.6055 16.0674L32.2758 18.503C29.09 18.9507 26.8633 21.9055 27.311 25.0914L27.7169 27.9797L13.2756 30.0092C10.0897 30.4571 7.86313 33.4119 8.31086 36.5977L9.52863 45.2626C9.97639 48.4485 12.9311 50.6751 16.1171 50.2273L39.2234 46.9799L39.0204 45.5357C38.9082 44.7375 39.4634 44.0008 40.2616 43.8886L48.9265 42.6708C49.7247 42.5586 50.4615 43.1138 50.5736 43.912L50.7766 45.3562L73.8829 42.1089C77.0686 41.6611 79.2952 38.7064 78.8474 35.5204L77.6296 26.8556C77.1819 23.6698 74.2271 21.4432 71.0412 21.891ZM50.8233 24.7324L33.4936 27.1679L33.0876 24.2796L50.4173 21.844L50.8233 24.7324Z" fill="#F9E5E5"/>
<path d="M79.0762 42.9683C78.5498 42.7935 77.9696 42.9326 77.5815 43.3236C76.6641 44.245 75.5257 44.8235 74.2875 44.9975L51.1814 48.2448L51.7903 52.5773C51.9025 53.3755 51.3474 54.1122 50.5491 54.2244L41.8843 55.4422C41.086 55.5544 40.3493 54.9992 40.2371 54.201L39.6282 49.8685L16.5221 53.1159C15.2838 53.2899 14.0302 53.0476 12.8942 52.4148C12.4117 52.1433 11.8171 52.1693 11.3595 52.4853C10.9032 52.7983 10.6632 53.3425 10.7403 53.8912L13.5869 74.1458C14.0347 77.3316 16.9894 79.5583 20.1754 79.1106L77.9411 70.9921C81.1269 70.5444 83.3536 67.5896 82.9058 64.4037L80.0592 44.1491C79.982 43.6003 79.6013 43.1434 79.0762 42.9683Z" fill="#F9E5E5"/>
<path d="M91.1033 18.8166C91.4701 18.0735 92.5299 18.0735 92.8967 18.8166L94.8576 22.7891C95.0031 23.0839 95.2843 23.2884 95.6096 23.336L99.9962 23.9771C100.816 24.097 101.143 25.1048 100.549 25.683L97.3768 28.773C97.1409 29.0027 97.0333 29.3339 97.0889 29.6584L97.8374 34.0226C97.9775 34.8396 97.12 35.4626 96.3864 35.0767L92.4655 33.0148C92.1741 32.8615 91.8259 32.8615 91.5345 33.0148L87.6136 35.0767C86.88 35.4626 86.0225 34.8396 86.1626 34.0226L86.9111 29.6584C86.9667 29.3339 86.8591 29.0027 86.6232 28.773L83.4507 25.683C82.8571 25.1048 83.1839 24.097 84.0038 23.9771L88.3904 23.336C88.7157 23.2884 88.9969 23.0839 89.1424 22.7891L91.1033 18.8166Z" fill="#FBEAEA"/>
<path d="M104.366 39.7677C104.864 39.1051 105.905 39.301 106.129 40.0992L107.133 43.6933C107.222 44.01 107.46 44.2629 107.771 44.3698L111.303 45.5838C112.087 45.8532 112.222 46.9041 111.532 47.3625L108.424 49.4267C108.15 49.6088 107.983 49.9144 107.977 50.2436L107.917 53.973C107.904 54.8018 106.946 55.2555 106.297 54.7407L103.372 52.4231C103.114 52.2186 102.771 52.1543 102.457 52.251L98.8897 53.3475C98.0974 53.591 97.3698 52.8203 97.6585 52.0433L98.9577 48.547C99.0724 48.2383 99.0278 47.893 98.8385 47.6236L96.6932 44.5714C96.2167 43.8935 96.7242 42.9634 97.5521 42.9972L101.284 43.1495C101.612 43.1629 101.927 43.014 102.124 42.7511L104.366 39.7677Z" fill="#FBEAEA"/>
<path d="M93.7539 62.1193C94.0882 61.7512 94.6995 61.9262 94.7884 62.4154L95.2636 65.0306C95.2989 65.2247 95.4273 65.3891 95.6071 65.4702L98.0316 66.5644C98.4848 66.7689 98.5069 67.4042 98.069 67.6397L95.7288 68.8983C95.5548 68.9919 95.438 69.1651 95.4165 69.3615L95.1277 72.0025C95.0737 72.4969 94.4761 72.7147 94.1167 72.371L92.1954 70.5342C92.0526 70.3977 91.8518 70.3402 91.6584 70.3805L89.0562 70.9225C88.5693 71.0239 88.1775 70.523 88.3933 70.0749L89.5456 67.681C89.6313 67.503 89.6239 67.2942 89.5257 67.1228L88.2059 64.8165C87.959 64.385 88.3139 63.8576 88.8066 63.9239L91.4428 64.2783C91.6383 64.3046 91.8343 64.233 91.9669 64.087L93.7539 62.1193Z" fill="#FBEAEA"/>
</svg>
