<svg width="120" height="100" viewBox="0 0 120 100" fill="none" xmlns="http://www.w3.org/2000/svg">
<path d="M109.373 70.626C96.4017 95.7737 67.9829 106.925 45.8975 95.5339C23.812 84.1425 16.4232 54.5217 29.3941 29.374C42.365 4.22626 70.7839 -6.92538 92.8693 4.46606C114.955 15.8575 122.344 45.4783 109.373 70.626Z" fill="#FFFAFA"/>
<g clip-path="url(#clip0_2952_14684)">
<path d="M57.1006 68.7498L38.2855 71.3941C36.9856 71.5768 36.0814 72.7766 36.2641 74.0765L36.9252 78.7803C37.472 82.671 41.0817 85.3911 44.9725 84.8443L54.38 83.5222C58.2707 82.9754 60.9909 79.3656 60.4441 75.4749L59.783 70.7711C59.6003 69.4712 58.4005 68.5671 57.1006 68.7498Z" fill="#F9E5E5"/>
<path d="M44.1948 45.1841C48.6345 44.5601 51.7277 40.4552 51.1038 36.0155C50.4798 31.5759 46.3749 28.4826 41.9352 29.1066C37.4956 29.7305 34.4023 33.8354 35.0263 38.2751C35.6502 42.7148 39.7551 45.808 44.1948 45.1841Z" fill="#F9E5E5"/>
<path d="M70.4817 29.3118C67.0501 17.0109 55.2537 8.33194 42.4661 8.64214C34.267 8.83512 26.5603 12.5324 21.3133 18.7141C16.0696 24.9192 13.7134 33.069 14.8438 41.1124C16.3312 51.6959 23.5125 60.4719 33.5807 64.0214C34.3895 64.3155 34.9958 65.0457 35.1181 65.9159L35.333 67.4446C36.0224 67.0599 36.8022 66.8065 37.6253 66.6908L56.4404 64.0465C57.2636 63.9308 58.0831 63.9595 58.8518 64.1393L58.637 62.6106C58.5147 61.7404 58.8727 60.8746 59.5926 60.3657C69.5136 53.3113 73.7733 41.1287 70.4817 29.3118ZM57.5083 37.5147L55.9126 37.7389C55.8294 39.5515 55.3685 41.2879 54.589 42.8555L55.8749 43.8245C56.9227 44.614 57.1318 46.1023 56.3423 47.1503C55.9476 47.6742 55.378 47.9885 54.7764 48.0731C54.1748 48.1576 53.5406 48.0124 53.0168 47.6177L51.7308 46.6486C50.4389 47.8301 48.8968 48.7517 47.1773 49.3312L47.4016 50.927C47.5843 52.2269 46.6801 53.4267 45.3802 53.6094C44.0804 53.7921 42.8805 52.888 42.6978 51.5881L42.4736 49.9923C40.6609 49.9091 38.9245 49.4483 37.357 48.6687L36.388 49.9547C35.9932 50.4786 35.4237 50.7929 34.8221 50.8775C34.2204 50.962 33.5863 50.8168 33.0624 50.4221C32.0147 49.6325 31.8055 48.1443 32.595 47.0963L33.564 45.8103C32.3826 44.5184 31.461 42.9763 30.8814 41.2568L29.2857 41.4811C27.9858 41.6638 26.7859 40.7596 26.6033 39.4597C26.4206 38.1599 27.3247 36.96 28.6246 36.7773L30.2204 36.553C30.3035 34.7404 30.7644 33.004 31.5439 31.4365L30.258 30.4675C29.2102 29.6779 29.0011 28.1897 29.7906 27.1417C30.5801 26.0937 32.0684 25.8848 33.1164 26.6743L34.4023 27.6433C35.6942 26.4619 37.2364 25.5403 38.9558 24.9607L38.7316 23.3649C38.5489 22.065 39.453 20.8652 40.7529 20.6825C42.0528 20.4998 43.2526 21.404 43.4353 22.7039L43.6596 24.2996C45.4722 24.3828 47.2086 24.8436 48.7761 25.6232L49.7452 24.3373C50.5347 23.2895 52.023 23.0803 53.071 23.8698C54.119 24.6593 54.3279 26.1477 53.5384 27.1956L52.5693 28.4816C53.7508 29.7735 54.6724 31.3156 55.252 33.0351L56.8477 32.8108C58.1476 32.6281 59.3474 33.5323 59.5301 34.8322C59.7128 36.1321 58.8082 37.332 57.5083 37.5147Z" fill="#F9E5E5"/>
<path d="M10.4703 44.1247L8.11843 44.4553C6.81854 44.638 5.61869 43.7338 5.436 42.4339C5.25332 41.134 6.15747 39.9342 7.45736 39.7515L9.80924 39.421C11.1091 39.2383 12.309 40.1424 12.4917 41.4423C12.6744 42.7422 11.7702 43.942 10.4703 44.1247Z" fill="#F9E5E5"/>
<path d="M16.8429 19.4881C16.2411 19.5727 15.6072 19.4275 15.0833 19.0327L13.1868 17.6036C12.1391 16.8141 11.9299 15.3258 12.7194 14.2778C13.5089 13.2298 14.9972 13.0209 16.0452 13.8104L17.9417 15.2395C18.9895 16.029 19.1986 17.5173 18.4091 18.5653C18.0143 19.0892 17.4445 19.4035 16.8429 19.4881Z" fill="#F9E5E5"/>
<path d="M21.9575 67.9463C21.3556 68.0309 20.7217 67.8857 20.1979 67.4909C19.1501 66.7014 18.9409 65.2131 19.7304 64.1651L21.1595 62.2686C21.9491 61.2209 23.4373 61.0117 24.4853 61.8012C25.5333 62.5907 25.7423 64.079 24.9527 65.127L23.5237 67.0235C23.1289 67.5474 22.5591 67.8618 21.9575 67.9463Z" fill="#F9E5E5"/>
<path d="M78.6754 34.5388L76.3235 34.8693C75.0236 35.052 73.8238 34.1479 73.6411 32.848C73.4584 31.5481 74.3625 30.3482 75.6624 30.1656L78.0143 29.835C79.3142 29.6523 80.5141 30.5565 80.6967 31.8564C80.8794 33.1563 79.9753 34.3561 78.6754 34.5388Z" fill="#F9E5E5"/>
<path d="M63.4067 12.9424C62.8049 13.027 62.1709 12.8818 61.6471 12.487C60.5993 11.6975 60.3902 10.2092 61.1797 9.16119L62.6088 7.26472C63.3983 6.21696 64.8866 6.0078 65.9346 6.7973C66.9825 7.58681 67.1915 9.07512 66.402 10.1231L64.9729 12.0196C64.5781 12.5435 64.0083 12.8579 63.4067 12.9424Z" fill="#F9E5E5"/>
</g>
<path d="M92.1568 63.0679L94.3747 63.499C94.7558 63.5731 95.1249 63.3241 95.199 62.9429L96.4924 56.2893C96.5665 55.9082 96.3175 55.5391 95.9363 55.465L89.9729 54.3058L90.2699 52.7781C90.5816 51.1746 89.5306 49.6165 87.9271 49.3048C86.3236 48.9931 84.7654 50.0441 84.4537 51.6476L84.1568 53.1753L78.1934 52.0161C77.8122 51.942 77.4431 52.191 77.369 52.5721L76.2099 58.5355L74.6822 58.2386C73.0787 57.9269 71.5206 58.9779 71.2089 60.5814C70.8972 62.1849 71.9482 63.743 73.5517 64.0547L75.0793 64.3517L73.9202 70.315C73.8461 70.6962 74.095 71.0653 74.4762 71.1394L81.1298 72.4327C81.511 72.5068 81.8801 72.2579 81.9542 71.8767L82.3853 69.6588C82.549 68.8165 83.3676 68.2644 84.2099 68.4281C85.0522 68.5919 85.6043 69.4104 85.4406 70.2527L85.0095 72.4706C84.9354 72.8518 85.1843 73.2209 85.5655 73.295L92.2191 74.5883C92.6003 74.6624 92.9694 74.4134 93.0435 74.0322L94.3368 67.3787C94.4109 66.9975 94.1619 66.6284 93.7808 66.5543L91.563 66.1232C90.7205 65.9594 90.1685 65.1409 90.3322 64.2986C90.4959 63.4562 91.3144 62.9041 92.1568 63.0679Z" fill="#FBEAEA"/>
<defs>
<clipPath id="clip0_2952_14684">
<rect width="76" height="76" fill="white" transform="translate(1.46875 14.2109) rotate(-8)"/>
</clipPath>
</defs>
</svg>
