<svg width="120" height="100" viewBox="0 0 120 100" fill="none" xmlns="http://www.w3.org/2000/svg">
<path d="M109.373 70.626C96.4017 95.7737 67.9829 106.925 45.8975 95.5339C23.812 84.1425 16.4232 54.5217 29.3941 29.374C42.365 4.22626 70.7839 -6.92538 92.8693 4.46606C114.955 15.8575 122.344 45.4783 109.373 70.626Z" fill="#FFFAFA"/>
<path d="M72.424 18.5413L62.5213 19.9331C62.41 19.1408 62.3265 18.5467 62.2152 17.7545C62.076 16.7642 60.9744 16.1112 59.9841 16.2503L24.3345 21.2606C23.3442 21.3997 22.4653 22.3311 22.6044 23.3214C22.7158 24.1136 22.6012 24.7356 22.7126 25.5278L13.0079 26.8917C11.8196 27.0587 11.1666 28.1603 11.3057 29.1506L11.6398 31.5272C13.1428 42.2221 22.1195 50.049 32.839 50.1582C34.3057 51.9717 35.9425 53.5594 37.5794 55.147L56.5926 52.4749C57.9265 50.4697 59.0624 48.4924 59.7743 46.3727C70.0206 43.115 76.4921 33.117 75.0169 22.6202L74.6829 20.2435C74.5437 19.2532 73.4143 18.4022 72.424 18.5413ZM15.6008 30.9705L15.5452 30.5744L23.2693 29.4889C24.3023 35.4027 26.27 40.7812 29.5963 45.7668C22.3304 44.3643 16.6585 38.4966 15.6008 30.9705ZM52.5309 35.0708L50.1478 38.2332L51.2987 42.1108C51.5802 42.6771 51.2676 43.3269 50.9272 43.7787C50.757 44.0046 50.3887 44.2583 49.9926 44.314C49.7945 44.3418 49.3984 44.3975 49.1725 44.2273L45.5551 42.918L42.4387 45.1737C41.9002 45.6533 41.2782 45.5387 40.6284 45.2261C39.9786 44.9135 39.697 44.3472 39.8115 43.7252L39.849 39.6806L36.6866 37.2975C36.2348 36.9571 35.9254 36.1927 36.04 35.5707C36.1545 34.9487 36.693 34.4691 37.2593 34.1876L40.9388 33.0646L42.2203 29.2491C42.3349 28.6271 42.8733 28.1475 43.6656 28.0361C44.2597 27.9526 44.9096 28.2652 45.3892 28.8037L47.6727 32.1182L51.5192 32.1835C52.1412 32.298 52.791 32.6106 53.0726 33.177C52.958 33.799 52.8713 34.619 52.5309 35.0708ZM71.0558 23.1768C72.1136 30.7029 68.2788 37.9067 61.681 41.2575C63.3339 35.7741 63.7428 30.0616 63.078 23.8941L71.0002 22.7807L71.0558 23.1768ZM55.339 56.4884L39.8908 58.6595C40.3361 61.8284 39.1971 65.2199 36.6716 68.8063C36.1609 69.4839 36.7241 70.6166 37.7143 70.4774L61.0847 67.1929C62.0749 67.0538 62.304 65.8098 61.6264 65.2991C57.7863 62.4054 55.7565 59.4592 55.339 56.4884Z" fill="#F9E5E5"/>
<path d="M63.8475 71.045L35.7239 74.9975C34.7336 75.1367 34.0527 76.0403 34.1919 77.0305L34.9435 82.378C35.1105 83.5663 36.014 84.2472 37.2023 84.0802L64.9298 80.1833C66.1182 80.0163 66.799 79.1128 66.632 77.9244L65.8527 72.3789C65.7413 71.5867 64.8378 70.9058 63.8475 71.045Z" fill="#F9E5E5"/>
<path d="M96.7744 60.876L98.734 58.4251L101.806 57.7815L102.513 54.7245L105 52.8129L104.305 49.7517L105.72 46.9495L103.77 44.493L103.823 41.3559L100.998 39.9881L99.6894 37.136L96.5529 37.1296L94.1332 35.1317L91.302 36.4851L88.2572 35.7324L86.2976 38.1833L83.2254 38.8269L82.5184 41.8838L80.0317 43.7955L80.7265 46.8567L79.3117 49.6589L81.2621 52.1153L81.2085 55.2525L84.0338 56.6203L85.3422 59.4724L88.4787 59.4788L90.8984 61.4767L93.7296 60.1235L96.7744 60.876ZM83.4829 47.1951C84.0944 42.2144 88.6442 38.6597 93.6249 39.2713C98.6057 39.8829 102.16 44.4326 101.549 49.4133C100.937 54.3941 96.3874 57.9487 91.4067 57.3372C86.426 56.7256 82.8713 52.1759 83.4829 47.1951Z" fill="#FBEAEA"/>
<path d="M93.3676 41.3675C89.542 40.8978 86.0475 43.6279 85.5778 47.4535C85.1081 51.2791 87.8383 54.7735 91.6638 55.2433C95.4894 55.713 98.9839 52.9828 99.4536 49.1572C99.9233 45.3317 97.1931 41.8372 93.3676 41.3675Z" fill="#FBEAEA"/>
<path d="M87.7188 61.5875L83.9877 61.5799L82.4322 58.1892L81.7995 57.8829L77.858 66.4361L83.0205 66.7837L86.6388 70.4825L89.9057 63.3933L87.7188 61.5875Z" fill="#FBEAEA"/>
<path d="M99.9096 60.3354L97.58 63.2491L93.958 62.3538L91.3992 63.5769L92.854 71.2459L97.2596 68.5323L102.353 69.4439L100.598 60.1913L99.9096 60.3354Z" fill="#FBEAEA"/>
</svg>
