<svg width="120" height="100" viewBox="0 0 120 100" fill="none" xmlns="http://www.w3.org/2000/svg">
<path d="M109.373 70.626C96.4017 95.7737 67.9829 106.925 45.8975 95.5339C23.812 84.1425 16.4232 54.5217 29.3941 29.374C42.365 4.22626 70.7839 -6.92538 92.8693 4.46606C114.955 15.8575 122.344 45.4783 109.373 70.626Z" fill="#FFFAFA"/>
<path d="M31.9742 48.5251C33.0939 48.3678 34.1331 49.1509 34.2904 50.2705C34.4478 51.3902 33.6647 52.4294 32.545 52.5868C31.4254 52.7442 30.3861 51.961 30.2288 50.8414C30.0714 49.7217 30.8545 48.6825 31.9742 48.5251Z" fill="#F9E5E5"/>
<path d="M32.8932 40.3207L33.4846 44.5286C32.8178 44.3917 32.1168 44.3646 31.4047 44.4647C28.0457 44.9367 25.6963 48.0544 26.1684 51.4134C26.6405 54.7724 29.7582 57.1217 33.1172 56.6497C33.8293 56.5496 34.4957 56.3303 35.0989 56.0149L35.6903 60.2228C35.0445 60.4516 34.3744 60.6148 33.688 60.7113C28.0897 61.4981 22.8936 57.5826 22.1068 51.9842C21.32 46.3859 25.2355 41.1898 30.8338 40.403C31.5203 40.3065 32.2094 40.2787 32.8932 40.3207Z" fill="#F9E5E5"/>
<path d="M18.0438 52.5516C19.1455 60.3906 26.4185 65.8712 34.2575 64.7695C34.9412 64.6734 35.6129 64.5307 36.268 64.3392L38.0009 76.6691L31.9084 77.5253C30.7873 77.6829 29.7497 76.9009 29.5921 75.7799L29.188 72.9043C27.4603 72.6652 25.7647 72.2215 24.1184 71.5789L22.3627 73.9104C21.6808 74.8153 20.396 74.9959 19.4911 74.314L12.9392 69.3768C12.0341 68.6947 11.8562 67.4068 12.5357 66.5052L14.2927 64.1735C13.2201 62.7697 12.3275 61.2618 11.6216 59.667L8.7459 60.0712C7.62488 60.2287 6.58721 59.4468 6.42966 58.3257L5.288 50.2024C5.13045 49.0814 5.9124 48.0437 7.03342 47.8862L9.90907 47.482C10.1481 45.7544 10.5905 44.0589 11.2344 42.4125L8.90291 40.6568C8.00127 39.9773 7.81722 38.6904 8.49933 37.7852L13.4365 31.2333C14.1184 30.3284 15.4032 30.1478 16.3081 30.8297L18.6398 32.5868C20.0437 31.5142 21.5515 30.6216 23.1463 29.9156L22.7422 27.04C22.5846 25.9189 23.3666 24.8813 24.4876 24.7237L30.5801 23.8675L32.3129 36.1973C31.6304 36.1938 30.9454 36.2418 30.2617 36.3379C22.4227 37.4396 16.9421 44.7126 18.0438 52.5516Z" fill="#F9E5E5"/>
<path d="M59.4484 21.0226L60.9939 32.0188L71.9901 30.4734L59.4484 21.0226ZM42.4456 34.6256L50.8397 33.4459C51.9607 33.2884 52.9984 34.0703 53.1559 35.1913C53.3135 36.3123 52.5316 37.35 51.4105 37.5076L43.0164 38.6873C41.8954 38.8448 40.8577 38.0629 40.7002 36.9419C40.5426 35.8208 41.3246 34.7832 42.4456 34.6256ZM67.0205 60.165L46.4414 63.0572C45.3204 63.2148 44.2827 62.4329 44.1252 61.3118C43.9676 60.1908 44.7496 59.1531 45.8706 58.9956L66.4497 56.1034C67.5707 55.9458 68.6084 56.7278 68.7659 57.8488C68.9235 58.9698 68.1415 60.0075 67.0205 60.165ZM65.8788 52.0417L45.2998 54.9339C44.1787 55.0915 43.1411 54.3095 42.9835 53.1885C42.826 52.0675 43.6079 51.0298 44.7289 50.8723L65.308 47.9801C66.429 47.8225 67.4667 48.6045 67.6243 49.7255C67.7818 50.8465 66.9999 51.8842 65.8788 52.0417ZM64.7372 43.9184L44.1581 46.8106C43.0371 46.9682 41.9994 46.1862 41.8418 45.0652C41.6843 43.9442 42.4662 42.9065 43.5873 42.7489L64.1663 39.8567C65.2874 39.6992 66.325 40.4811 66.4826 41.6022C66.6401 42.7232 65.8582 43.7609 64.7372 43.9184ZM59.5339 36.3659C58.4128 36.5235 57.3752 35.7415 57.2176 34.6205L55.2197 20.4047L34.6406 23.2969L42.0614 76.0985L76.8563 71.2084C77.9773 71.0508 78.7593 70.0131 78.6017 68.8921L73.7497 34.368L59.5339 36.3659Z" fill="#F9E5E5"/>
<path d="M109.638 50.305C109.974 46.4638 107.646 42.8885 103.997 41.6432C103.682 41.5379 103.362 41.4505 103.037 41.3815C99.7268 40.6831 96.3217 42.0498 94.4125 44.8432C92.5034 47.6366 92.4669 51.3056 94.3201 54.1364C95.3149 55.5981 95.6799 57.3985 95.3327 59.1322L95.1319 60.0767L102.678 61.6807L102.88 60.7313C103.246 59.0359 104.281 57.5602 105.751 56.6383C107.968 55.254 109.407 52.9092 109.637 50.3053L109.637 50.305L109.638 50.305Z" fill="#FBEAEA"/>
<path d="M97.568 67.1651C98.3674 67.3341 99.1867 66.9819 99.6141 66.2855L96.0566 65.5293C96.1638 66.3393 96.769 66.9943 97.568 67.1651Z" fill="#FBEAEA"/>
<path d="M95.0931 63.3553C95.0198 63.7026 95.2413 64.0436 95.5883 64.1178L100.619 65.1872C100.966 65.2605 101.307 65.039 101.382 64.692L101.783 62.8054L95.4941 61.4688L95.0931 63.3553Z" fill="#FBEAEA"/>
<path d="M103.85 37.6106C104.544 37.7582 105.227 37.3148 105.375 36.6202L106.043 33.476C106.191 32.7814 105.747 32.0986 105.053 31.9509C104.358 31.8033 103.675 32.2467 103.528 32.9413L102.859 36.0855C102.712 36.7801 103.155 37.4629 103.85 37.6106Z" fill="#FBEAEA"/>
<path d="M92.5747 38.4661C92.9714 39.0472 93.7548 39.2137 94.3535 38.8441C94.6396 38.6584 94.8401 38.3667 94.911 38.0331C94.9819 37.6995 94.9174 37.3514 94.7316 37.0654L92.9807 34.3697C92.7951 34.0837 92.5033 33.8831 92.1698 33.8123C91.8363 33.7414 91.4882 33.8059 91.2022 33.9917C90.9162 34.1773 90.7157 34.469 90.6448 34.8026C90.5739 35.1362 90.6384 35.4842 90.8242 35.7702L92.5747 38.4661Z" fill="#FBEAEA"/>
<path d="M89.363 47.0193C89.5106 46.3247 89.0672 45.6419 88.3726 45.4943L85.2284 44.8259C84.5339 44.679 83.8516 45.1221 83.7034 45.8163C83.5565 46.5108 83.9996 47.1931 84.6937 47.3413L87.838 48.0097C88.5326 48.1573 89.2154 47.7139 89.363 47.0193Z" fill="#FBEAEA"/>
<path d="M117.927 51.7775L114.783 51.1091C114.088 50.9615 113.406 51.4049 113.258 52.0995C113.11 52.7941 113.554 53.4769 114.248 53.6246L117.393 54.2929C118.087 54.4405 118.77 53.9971 118.918 53.3025C119.065 52.6079 118.622 51.9251 117.927 51.7775Z" fill="#FBEAEA"/>
<path d="M113.802 42.979L116.498 41.2282C116.883 40.978 117.106 40.5413 117.082 40.0826C117.058 39.6239 116.791 39.2129 116.381 39.0043C115.972 38.7958 115.483 38.8214 115.098 39.0716L112.402 40.8221C112.116 41.0078 111.915 41.2996 111.844 41.6331C111.773 41.9667 111.838 42.3149 112.024 42.6008C112.42 43.1821 113.204 43.3486 113.802 42.979Z" fill="#FBEAEA"/>
</svg>
