<svg width="120" height="100" viewBox="0 0 120 100" fill="none" xmlns="http://www.w3.org/2000/svg">
<path d="M109.373 70.626C96.4017 95.7737 67.9829 106.925 45.8975 95.5339C23.812 84.1425 16.4232 54.5217 29.3941 29.374C42.365 4.22626 70.7839 -6.92538 92.8693 4.46606C114.955 15.8575 122.344 45.4783 109.373 70.626Z" fill="#FFFAFA"/>
<path d="M73.201 23.967L73.1735 23.8617C72.2845 20.4556 70.2511 17.4589 67.4145 15.3743C64.5778 13.2897 61.1106 12.2441 57.5944 12.4129C52.4412 12.6601 44.0417 13.671 36.196 14.8704C28.3502 16.0698 20.0324 17.6145 15.0406 18.9181C11.6346 19.8075 8.63809 21.8413 6.5538 24.6781C4.46951 27.515 3.42427 30.9823 3.59344 34.4985L3.59847 34.6058C3.80288 38.8836 3.56002 39.6121 4.91772 48.4934C6.27542 57.3748 6.84044 58.7537 7.92339 62.8972L7.95066 63.0011C8.83926 66.4073 10.8726 69.4042 13.7093 71.4886C16.546 73.573 20.0135 74.6181 23.5296 74.4485C28.6828 74.2013 37.0825 73.1918 44.9283 71.9924C52.774 70.793 61.0919 69.2483 66.082 67.9435C69.4885 67.0551 72.4857 65.0219 74.5704 62.1851C76.6551 59.3483 77.7004 55.8807 77.5308 52.3643L77.5255 52.2556C77.3211 47.9778 77.4482 46.4917 76.0909 37.6131C74.7336 28.7346 74.284 28.1105 73.201 23.967ZM22.1745 29.1613C23.7729 28.9156 25.4082 29.1494 26.8736 29.8333C28.339 30.5171 29.5687 31.6203 30.407 33.0031C31.2454 34.386 31.6547 35.9864 31.5833 37.602C31.5119 39.2175 30.9629 40.7756 30.0058 42.0791C29.0487 43.3825 27.7265 44.3728 26.2064 44.9247C24.6864 45.4766 23.0368 45.5652 21.4664 45.1794C19.896 44.7935 18.4753 43.9506 17.384 42.7571C16.2928 41.5637 15.58 40.0734 15.3359 38.4748C15.0085 36.333 15.5449 34.1489 16.8273 32.4024C18.1096 30.656 20.033 29.4902 22.1745 29.1613ZM39.875 54.6824L39.8804 54.7172C39.9259 55.9285 39.5977 57.1244 38.9402 58.1428C38.2986 59.1755 37.342 59.9746 36.2116 60.4221C34.601 61.0538 30.5028 62.0601 27.9049 62.4402C25.3207 62.9007 20.163 63.2766 18.4357 63.1352C17.2231 63.0465 16.0712 62.5696 15.1508 61.7752C14.2194 61.0002 13.5489 59.9574 13.2303 58.7883L13.2248 58.7522C13.0072 57.9073 12.8488 57.0484 12.7507 56.1815C12.6078 55.4721 12.5248 54.7519 12.5027 54.0286L12.4974 53.9939C12.4455 52.8422 12.7909 51.7076 13.4756 50.7801C14.1632 49.8438 15.1485 49.1689 16.2701 48.8663C17.9112 48.4347 22.9834 47.5555 25.5676 47.1604C28.1518 46.7654 32.316 46.227 34.0147 46.1536C35.1757 46.1073 36.3179 46.4575 37.2535 47.1465C38.1802 47.8294 38.8447 48.8094 39.1361 49.923L39.1414 49.9578C39.3331 50.6546 39.484 51.3621 39.5933 52.0766C39.7321 52.9398 39.8252 53.8098 39.8723 54.6828L39.875 54.6824ZM57.5587 49.4583L48.0963 50.9048C47.6899 50.9669 47.2753 50.9484 46.8761 50.8503C46.4769 50.7522 46.1009 50.5764 45.7697 50.333C45.4384 50.0895 45.1583 49.7833 44.9454 49.4316C44.7325 49.08 44.591 48.6898 44.5289 48.2835C44.4667 47.8771 44.4853 47.4625 44.5834 47.0633C44.6815 46.6641 44.8573 46.2881 45.1007 45.9569C45.3441 45.6256 45.6504 45.3455 46.002 45.1326C46.3537 44.9197 46.7438 44.7782 47.1502 44.7161L56.6126 43.2695C57.4333 43.1441 58.2702 43.3498 58.9392 43.8414C59.6082 44.333 60.0545 45.0702 60.18 45.8909C60.3055 46.7115 60.0998 47.5484 59.6082 48.2175C59.1166 48.8865 58.3793 49.3328 57.5587 49.4583ZM65.2916 37.3592L46.4655 40.2372C45.6534 40.3438 44.8318 40.1279 44.1769 39.636C43.522 39.144 43.086 38.415 42.9622 37.6053C42.8384 36.7956 43.0368 35.9697 43.5148 35.3045C43.9927 34.6394 44.7123 34.1879 45.5192 34.047L64.3439 31.1693C65.1561 31.0627 65.9776 31.2785 66.6325 31.7705C67.2874 32.2625 67.7235 32.9914 67.8472 33.8011C67.971 34.6108 67.7727 35.4368 67.2947 36.1019C66.8167 36.7671 66.0971 37.2185 65.2902 37.3594L65.2916 37.3592Z" fill="#F9E5E5"/>
<path d="M100.307 37.7992L95.0892 35.027L80.408 58.1894L89.3287 62.9292L100.307 37.7992Z" fill="#FBEAEA"/>
<path d="M88.6567 64.0392L79.867 59.3684L76.4686 70.0745L81.6862 72.8467L88.6567 64.0392Z" fill="#FBEAEA"/>
<path d="M78.2939 79.0012L80.5228 73.0679L76.8917 71.1809L73.5566 75.7792C73.5566 75.7792 74.6032 79.8695 72.707 82.8749C72.7076 82.8747 75.0316 79.6186 78.2939 79.0012ZM76.5317 77.999C76.0599 78.1435 75.5602 77.878 75.4158 77.4061C75.2714 76.9343 75.5369 76.4346 76.0087 76.2902C76.4806 76.1458 76.9802 76.4113 77.1246 76.8831C77.2691 77.355 77.0036 77.8546 76.5317 77.999Z" fill="#FBEAEA"/>
<path d="M95.5432 34.0533L100.356 36.6107C99.1969 32.7851 95.5432 34.0533 95.5432 34.0533Z" fill="#FBEAEA"/>
</svg>
