<svg width="120" height="100" viewBox="0 0 120 100" fill="none" xmlns="http://www.w3.org/2000/svg">
<path d="M109.373 70.626C96.4017 95.7737 67.9829 106.925 45.8975 95.5339C23.812 84.1425 16.4232 54.5217 29.3941 29.374C42.365 4.22626 70.7839 -6.92538 92.8693 4.46606C114.955 15.8575 122.344 45.4783 109.373 70.626Z" fill="#FFFAFA"/>
<path d="M73.6711 51.5919C66.5045 49.4723 52.2955 51.3502 50.2354 51.6397C48.1752 51.9293 33.999 54.0406 27.6943 58.0535L25.5292 42.6478C26.3988 41.1371 34.4107 37.6344 47.9986 35.7247C61.5865 33.8151 70.2536 34.9737 71.5059 36.1862L73.6711 51.5919ZM51.7265 62.2497C38.6408 64.0888 30.1197 63.0828 28.3896 61.923C29.7329 60.3313 37.6502 57.015 50.7324 55.1764C63.8145 53.3378 72.3392 54.3433 74.0693 55.5031C72.7259 57.0949 64.8122 60.4107 51.7265 62.2497ZM88.8902 44.4039L85.3535 44.9009L84.608 39.5959C84.4707 38.6193 85.1512 37.7163 86.1278 37.5791C87.1044 37.4418 88.0074 38.1222 88.1446 39.0989L88.8902 44.4039ZM87.4349 34.0485L86.3694 26.4676L92.0292 27.6351C93.8695 28.0147 94.2179 30.4928 92.5537 31.3652L87.4349 34.0485ZM45.2218 18.2036C45.4264 18.0964 45.6617 18.0634 45.8879 18.1101L82.6551 25.7003L83.9081 34.6163C82.8458 35.1708 81.9996 36.0648 81.5043 37.1559L75.6773 40.2055L75.0207 35.5335C74.0545 28.6582 50.216 31.8065 47.5016 32.188C44.7872 32.5695 21.0044 36.1139 21.9706 42.9892L22.627 47.6594L3.97241 43.8144C2.13157 43.4349 1.78321 40.9559 3.44818 40.0839L45.2218 18.2036Z" fill="#F9E5E5"/>
<path d="M92.3165 67.5024C92.5443 68.7249 92.6336 69.9691 92.5827 71.2116C90.8741 70.2411 88.7755 70.265 87.0895 71.2741C87.164 69.8644 87.0977 68.4507 86.8916 67.0542C87.8387 67.1513 88.811 67.2405 89.8083 67.3217C90.6643 67.3915 91.4961 67.4498 92.3165 67.5024ZM89.5705 79.9171C87.4077 79.7409 85.7973 77.8447 85.9735 75.6819C86.1497 73.5191 88.0458 71.9087 90.2086 72.0849C92.3714 72.2611 93.9819 74.1572 93.8057 76.32C93.627 78.4815 91.7325 80.0906 89.5705 79.9171ZM67.4314 71.0176C67.5334 68.7649 67.9804 66.5412 68.757 64.4241C69.1807 66.6389 69.2619 68.9057 68.9979 71.1452C68.8959 73.398 68.4488 75.6217 67.6723 77.7388C67.2486 75.5239 67.1674 73.2572 67.4314 71.0176ZM69.2458 78.0018C69.9798 75.8267 70.4231 73.5641 70.5643 71.2729C70.7959 68.9887 70.7246 66.6839 70.3524 64.4184C75.2725 65.5111 80.2487 66.3332 85.2587 66.8809C85.5809 68.7313 85.6437 70.6175 85.4455 72.4852C85.4362 72.5988 85.4274 72.7069 85.4139 72.8154C84.3469 74.2987 84.0952 76.2183 84.7436 77.9265L84.7024 78.0067C79.5544 77.7141 74.394 77.7125 69.2458 78.0018ZM86.3098 85.1704L85.8452 83.808C85.7054 83.3989 85.2614 83.1795 84.8516 83.317L83.4859 83.7924L85.6813 79.5387C86.3731 80.3642 87.2923 80.9683 88.3245 81.2757L86.3098 85.1704ZM93.6769 84.036C93.2947 83.834 92.8211 83.9786 92.6169 84.3597L91.9312 85.6149L90.5795 81.4579C91.6488 81.3215 92.6544 80.874 93.4714 80.171L94.9468 84.7064L93.6769 84.036ZM109.781 81.5242C104.812 80.3398 99.7763 79.4556 94.7012 78.8765L94.6565 78.7373C95.8106 76.7419 95.5896 74.2372 94.104 72.4748C94.2302 70.85 94.1745 69.2162 93.9379 67.6038C99.5958 67.9374 105.269 67.904 110.923 67.5038C111.236 68.1505 111.614 70.6388 111.292 74.5909C110.97 78.5431 110.191 80.9363 109.781 81.5242Z" fill="#FBEAEA"/>
</svg>
