<svg width="80" height="80" viewBox="0 0 80 80" fill="none" xmlns="http://www.w3.org/2000/svg">
<g id="feature-blog" clip-path="url(#clip0_9429_137570)">
<path id="Ellipse 4" d="M72.0726 67.7001C61.6698 87.8182 38.8776 96.7395 21.1648 87.6264C3.45201 78.5132 -2.47389 54.8165 7.92894 34.6984C18.3318 14.5802 41.124 5.65891 58.8368 14.7721C76.5496 23.8852 82.4754 47.5819 72.0726 67.7001Z" fill="#FAFAFA"/>
<g id="Ellipse 20" opacity="0.1" filter="url(#filter0_f_9429_137570)">
<ellipse cx="39.1992" cy="81.1992" rx="32" ry="6" fill="#3E3E3E"/>
</g>
<g id="Group 6239">
<g id="Group 6238">
<rect id="Rectangle 705" x="4.82812" y="23.5723" width="66" height="45" rx="3.2" transform="rotate(-6 4.82812 23.5723)" fill="url(#paint0_linear_9429_137570)"/>
<rect id="Rectangle 701" x="50.1953" y="29.4629" width="16.8" height="24.8" rx="1.6" transform="rotate(-6 50.1953 29.4629)" fill="url(#paint1_linear_9429_137570)"/>
<circle id="Ellipse 30" opacity="0.7" cx="10.1764" cy="26.6291" r="1.4" transform="rotate(-6 10.1764 26.6291)" fill="white" stroke="#D6D6D6" stroke-width="0.4"/>
<circle id="Ellipse 31" opacity="0.7" cx="14.9538" cy="26.1271" r="1.4" transform="rotate(-6 14.9538 26.1271)" fill="white" stroke="#D6D6D6" stroke-width="0.4"/>
<circle id="Ellipse 32" opacity="0.7" cx="19.7272" cy="25.6271" r="1.4" transform="rotate(-6 19.7272 25.6271)" fill="white" stroke="#D6D6D6" stroke-width="0.4"/>
<path id="Vector" d="M44.0679 28.5986L12.8052 31.8845C11.5535 32.016 10.6422 33.1414 10.7738 34.3931L11.6327 42.5656C11.7643 43.8173 12.8896 44.7287 14.1414 44.5971L15.0322 44.5035L15.2603 46.5057C15.2812 46.6902 15.405 46.8469 15.5796 46.9102C15.6505 46.9359 15.725 46.9444 15.7973 46.9368C15.903 46.9257 16.0042 46.8803 16.0839 46.8042L18.9233 44.0946L45.404 41.3113C46.6557 41.1798 47.5671 40.0544 47.4355 38.8026L46.5765 30.6301C46.445 29.3784 45.3196 28.4671 44.0679 28.5986Z" fill="url(#paint2_linear_9429_137570)"/>
<g id="BLOG">
<path d="M17.5251 40.9399L16.8666 34.6745L19.6324 34.3838C20.062 34.3386 20.4326 34.363 20.7441 34.457C21.055 34.5449 21.2973 34.6975 21.4709 34.9145C21.6499 35.1249 21.7563 35.3913 21.7902 35.7135C21.8278 36.0715 21.77 36.3823 21.6167 36.6457C21.4694 36.9086 21.233 37.0993 20.9076 37.218L20.8718 37.0498C21.1586 37.08 21.4112 37.159 21.6298 37.2869C21.8543 37.4141 22.0349 37.5822 22.1714 37.791C22.3074 37.9939 22.3898 38.2326 22.4187 38.5071C22.4519 38.8234 22.4274 39.1065 22.345 39.3565C22.2621 39.6005 22.1276 39.8137 21.9417 39.9961C21.7557 40.1786 21.5296 40.323 21.2633 40.4294C21.0029 40.5352 20.7086 40.6054 20.3804 40.6398L17.5251 40.9399ZM18.8237 39.5184L20.1931 39.3745C20.3602 39.3569 20.4976 39.3153 20.6053 39.2497C20.719 39.1835 20.8034 39.0962 20.8584 38.9878C20.9127 38.8735 20.932 38.7418 20.9164 38.5926C20.9019 38.4554 20.8539 38.3428 20.7723 38.2548C20.6966 38.1662 20.5936 38.1047 20.4633 38.0701C20.3323 38.0296 20.1803 38.0184 20.0073 38.0366L18.6826 38.1758L18.8237 39.5184ZM18.5631 37.0391L19.6819 36.9215C19.8371 36.9052 19.9658 36.8675 20.0682 36.8085C20.176 36.7429 20.252 36.6625 20.2963 36.5673C20.3459 36.4656 20.3638 36.3491 20.35 36.2178C20.33 36.0269 20.2486 35.8846 20.1061 35.791C19.9629 35.6914 19.76 35.6554 19.4974 35.683L18.4323 35.7949L18.5631 37.0391Z" fill="white"/>
<path d="M23.8011 40.2803L23.1426 34.0148L24.6642 33.8549L25.1816 38.7778L27.9742 38.4843L28.1154 39.8269L23.8011 40.2803Z" fill="white"/>
<path d="M31.9453 39.5148C31.4679 39.565 31.0239 39.5302 30.6131 39.4105C30.2023 39.2908 29.8354 39.1001 29.5123 38.8384C29.1892 38.5768 28.9263 38.2575 28.7238 37.8806C28.5213 37.5037 28.3953 37.0796 28.3458 36.6082C28.2962 36.1368 28.3313 35.6957 28.451 35.2849C28.5707 34.8741 28.7614 34.5072 29.0231 34.1841C29.2847 33.861 29.604 33.5981 29.9809 33.3956C30.3578 33.1931 30.782 33.0671 31.2534 33.0176C31.7248 32.968 32.1659 33.0031 32.5766 33.1228C32.9874 33.2425 33.3543 33.4332 33.6775 33.6949C34.0006 33.9565 34.2604 34.2761 34.4569 34.6537C34.6594 35.0306 34.7855 35.4547 34.835 35.9261C34.8839 36.3915 34.8489 36.8326 34.7298 37.2494C34.616 37.6595 34.4283 38.0261 34.1666 38.3492C33.905 38.6724 33.5857 38.9352 33.2088 39.1377C32.8319 39.3402 32.4108 39.4659 31.9453 39.5148ZM31.7858 38.0837C32.0305 38.0579 32.2496 37.9897 32.443 37.8788C32.6425 37.7674 32.8083 37.6233 32.9406 37.4465C33.0781 37.2631 33.1771 37.0566 33.2374 36.827C33.2978 36.5975 33.3141 36.3514 33.2866 36.0889C33.259 35.8263 33.1918 35.589 33.085 35.377C32.9783 35.165 32.8389 34.9866 32.6668 34.8418C32.5001 34.6904 32.3076 34.5809 32.0893 34.5134C31.877 34.4452 31.6485 34.424 31.4039 34.4497C31.1592 34.4754 30.9372 34.544 30.7378 34.6554C30.5443 34.7663 30.3787 34.9134 30.2412 35.0968C30.103 35.2742 30.0037 35.4777 29.9433 35.7072C29.889 35.9362 29.8756 36.1819 29.9032 36.4445C29.9308 36.707 29.9953 36.9476 30.0967 37.1662C30.2034 37.3782 30.3428 37.5566 30.5149 37.7014C30.687 37.8462 30.8792 37.9527 31.0915 38.0209C31.3097 38.0884 31.5412 38.1094 31.7858 38.0837Z" fill="white"/>
<path d="M39.2627 38.7457C38.7615 38.7984 38.2995 38.7655 37.8768 38.6471C37.4541 38.5286 37.0812 38.3385 36.7581 38.0769C36.435 37.8152 36.1751 37.4956 35.9786 37.1181C35.7814 36.7346 35.6584 36.3101 35.6095 35.8447C35.5605 35.3793 35.5963 34.9442 35.7166 34.5394C35.8423 34.128 36.0419 33.7601 36.3155 33.4357C36.5891 33.1113 36.9233 32.847 37.3181 32.6426C37.7189 32.4376 38.1639 32.3093 38.6532 32.2579C38.9993 32.2215 39.3292 32.2321 39.643 32.2896C39.9627 32.3465 40.256 32.4394 40.5229 32.5682C40.7898 32.697 41.0205 32.8537 41.2148 33.0384L40.3955 34.1109C40.2312 33.9834 40.0635 33.8804 39.8924 33.8018C39.7272 33.7227 39.5523 33.6656 39.3676 33.6307C39.1823 33.5899 38.9883 33.5801 38.7854 33.6014C38.5228 33.629 38.2862 33.7022 38.0754 33.8209C37.8706 33.9389 37.6938 34.0932 37.5449 34.2839C37.4014 34.4679 37.2971 34.6809 37.232 34.9231C37.1663 35.1592 37.1476 35.4116 37.1758 35.6801C37.2041 35.9486 37.2781 36.1942 37.3981 36.4169C37.518 36.6396 37.6706 36.8287 37.8559 36.9841C38.0405 37.1337 38.2515 37.2472 38.489 37.3248C38.7317 37.3958 38.9844 37.4176 39.2469 37.39C39.4319 37.3705 39.6018 37.3225 39.7566 37.2459C39.9175 37.1687 40.0522 37.073 40.1609 36.9591C40.2696 36.8451 40.3525 36.7157 40.4097 36.5709C40.4662 36.4202 40.486 36.2643 40.4691 36.1032L40.4446 35.8704L40.6735 36.1541L38.9461 36.3356L38.8209 35.1452L41.7657 34.8357C41.7846 34.9001 41.8029 34.9886 41.8208 35.1014C41.8387 35.2141 41.8533 35.3242 41.8646 35.4316C41.8818 35.5384 41.8933 35.6186 41.8989 35.6723C41.9416 36.0781 41.9062 36.4589 41.7927 36.8147C41.6846 37.1639 41.5122 37.4746 41.2753 37.7469C41.0385 38.0191 40.7483 38.2427 40.4047 38.4176C40.0611 38.5924 39.6804 38.7018 39.2627 38.7457Z" fill="white"/>
</g>
<rect id="Rectangle 693" x="12.6875" y="50.498" width="28" height="3.2" rx="1.6" transform="rotate(-6 12.6875 50.498)" fill="url(#paint3_linear_9429_137570)"/>
<rect id="Rectangle 694" x="13.3672" y="56.9629" width="36" height="3.2" rx="1.6" transform="rotate(-6 13.3672 56.9629)" fill="url(#paint4_linear_9429_137570)"/>
<path id="Vector_2" d="M63.8287 35.8895L63.172 35.7665C62.9383 35.7227 62.7475 35.5604 62.6349 35.351C62.5241 35.1448 62.4932 34.9005 62.5813 34.6837L62.8336 34.0635C62.8484 34.027 62.8509 33.9867 62.841 33.9486C62.831 33.9105 62.809 33.8767 62.7782 33.8521L61.9892 33.2111C61.9587 33.1861 61.921 33.1717 61.8816 33.1698C61.8423 33.168 61.8034 33.1789 61.7707 33.2009L61.2329 33.5649C61.0323 33.7008 60.7778 33.7199 60.5459 33.6495C60.3175 33.5801 60.119 33.4263 60.0264 33.2063L59.7723 32.6025C59.7559 32.5674 59.7287 32.5385 59.6947 32.5198C59.6607 32.5011 59.6217 32.4937 59.5833 32.4987L58.5738 32.6048C58.5351 32.609 58.4987 32.6255 58.4699 32.6519C58.4412 32.6782 58.4216 32.713 58.4141 32.7513L58.2916 33.3889C58.2462 33.625 58.0824 33.8178 57.8715 33.9334C57.6577 34.0505 57.403 34.0842 57.1775 33.9915L56.5928 33.7511C56.5562 33.7364 56.5159 33.7338 56.4778 33.7438C56.4397 33.7538 56.4058 33.7758 56.3812 33.8065L55.7298 34.5899C55.7048 34.6204 55.6903 34.658 55.6885 34.6974C55.6866 34.7367 55.6975 34.7755 55.7195 34.8082L56.0767 35.3301C56.2141 35.5308 56.234 35.7864 56.1636 36.0192C56.0944 36.2479 55.9405 36.4466 55.7202 36.5392L55.1159 36.7931C55.08 36.8085 55.05 36.8348 55.0302 36.8684C55.0104 36.9019 55.0018 36.9409 55.0057 36.9797L55.1117 37.9881C55.1159 38.0269 55.1324 38.0632 55.1588 38.0919C55.1852 38.1206 55.22 38.1401 55.2583 38.1477L55.9127 38.2713C56.1447 38.3152 56.3351 38.4747 56.4503 38.6808C56.5671 38.89 56.6026 39.1398 56.5144 39.3626L56.2645 39.9936C56.2498 40.0301 56.2472 40.0704 56.2572 40.1085C56.2672 40.1466 56.2892 40.1804 56.3199 40.205L57.1087 40.843C57.1391 40.868 57.1768 40.8825 57.2162 40.8843C57.2556 40.8861 57.2945 40.8752 57.3271 40.8533L57.8918 40.4713C58.0832 40.3418 58.3254 40.3214 58.5472 40.3862C58.773 40.4521 58.9691 40.6036 59.0593 40.8208L59.3189 41.4463C59.3342 41.4821 59.3606 41.5121 59.3942 41.5319C59.4278 41.5517 59.4668 41.5603 59.5056 41.5564L60.515 41.4503C60.5538 41.446 60.5902 41.4295 60.6189 41.4032C60.6477 41.3768 60.6672 41.342 60.6748 41.3038L60.7994 40.6312C60.8418 40.4023 61 40.2149 61.2048 40.104C61.407 39.9945 61.6471 39.9639 61.8603 40.0503L62.4997 40.3096C62.5363 40.3243 62.5766 40.3269 62.6147 40.3169C62.6528 40.3069 62.6867 40.2849 62.7113 40.2542L63.3501 39.4661C63.3751 39.4356 63.3896 39.398 63.3915 39.3586C63.3933 39.3193 63.3824 39.2805 63.3604 39.2478L62.9764 38.6826C62.846 38.4907 62.8261 38.2472 62.8922 38.0249C62.9586 37.8017 63.1092 37.6081 63.3243 37.519L63.9544 37.2578C63.9903 37.2425 64.0203 37.2161 64.0401 37.1826C64.06 37.149 64.0685 37.11 64.0647 37.0713L63.9577 36.0539C63.9556 36.0166 63.9421 35.9809 63.919 35.9515C63.896 35.9221 63.8645 35.9004 63.8287 35.8895ZM59.7214 38.668C59.3965 38.7022 59.0688 38.6393 58.7798 38.4874C58.4907 38.3355 58.2532 38.1013 58.0974 37.8145C57.9415 37.5277 57.8743 37.2012 57.9043 36.8762C57.9342 36.5513 58.0599 36.2424 58.2655 35.9888C58.4711 35.7352 58.7473 35.5481 59.0593 35.4513C59.3713 35.3545 59.705 35.3523 60.0182 35.4449C60.3313 35.5376 60.61 35.721 60.8188 35.9718C61.0277 36.2227 61.1574 36.5299 61.1915 36.8544C61.2372 37.2896 61.108 37.7252 60.8323 38.0653C60.5566 38.4054 60.157 38.6222 59.7214 38.668Z" fill="url(#paint5_linear_9429_137570)"/>
</g>
<line id="Line 128" x1="5.53769" y1="30.3343" x2="71.1761" y2="23.4354" stroke="#D6D6D6" stroke-width="0.4"/>
</g>
</g>
<defs>
<filter id="filter0_f_9429_137570" x="-0.800781" y="67.1992" width="80" height="28" filterUnits="userSpaceOnUse" color-interpolation-filters="sRGB">
<feFlood flood-opacity="0" result="BackgroundImageFix"/>
<feBlend mode="normal" in="SourceGraphic" in2="BackgroundImageFix" result="shape"/>
<feGaussianBlur stdDeviation="4" result="effect1_foregroundBlur_9429_137570"/>
</filter>
<linearGradient id="paint0_linear_9429_137570" x1="37.8281" y1="23.5723" x2="37.8281" y2="68.5723" gradientUnits="userSpaceOnUse">
<stop stop-color="#ECECEC"/>
<stop offset="1" stop-color="#C1C1C1"/>
</linearGradient>
<linearGradient id="paint1_linear_9429_137570" x1="58.5953" y1="29.4629" x2="58.5953" y2="54.2629" gradientUnits="userSpaceOnUse">
<stop stop-color="white"/>
<stop offset="1" stop-color="white" stop-opacity="0"/>
</linearGradient>
<linearGradient id="paint2_linear_9429_137570" x1="32.1853" y1="30.3503" x2="33.7305" y2="45.052" gradientUnits="userSpaceOnUse">
<stop stop-color="#ED1B2F"/>
<stop offset="1" stop-color="#B51424"/>
</linearGradient>
<linearGradient id="paint3_linear_9429_137570" x1="12.7925" y1="51.9736" x2="40.7925" y2="51.9736" gradientUnits="userSpaceOnUse">
<stop stop-color="#151515"/>
<stop offset="1" stop-color="#616161"/>
</linearGradient>
<linearGradient id="paint4_linear_9429_137570" x1="13.5021" y1="58.4384" x2="49.5021" y2="58.4384" gradientUnits="userSpaceOnUse">
<stop stop-color="#151515"/>
<stop offset="1" stop-color="#616161"/>
</linearGradient>
<linearGradient id="paint5_linear_9429_137570" x1="55.0572" y1="37.1471" x2="64.0079" y2="36.2064" gradientUnits="userSpaceOnUse">
<stop stop-color="#151515"/>
<stop offset="1" stop-color="#616161"/>
</linearGradient>
<clipPath id="clip0_9429_137570">
<rect width="80" height="80" fill="white"/>
</clipPath>
</defs>
</svg>
